# xmcd CD database file
#
# Track frame offsets:
#	150
#	10853
#	27118
#	43612
#	57631
#	67157
#	92228
#	103927
#	129928
#	159554
#
# Disc length: 2226 seconds
#
# Revision: 0
# Processed by: cddbd v1.5.2PL0 Copyright (c) Steve Scherf et al.
# Submitted via: CDex 1.50Beta7
#
DISCID=8608b00a
DTITLE=Brecksville-Broadview Hts. Jazz Ensemble - A Night Of Jazz
DYEAR=1998
DGENRE=Jazz
TTITLE0=It Don't Mean A Thing (If It Ain't Got That Swing)
TTITLE1=East Side Drive
TTITLE2=Satin Doll
TTITLE3=All Of Me
TTITLE4=Sunday Morning
TTITLE5=Mr. Goof
TTITLE6=Struttin
TTITLE7=Snakes
TTITLE8=Latino Lady
TTITLE9=Carnival Del Soul
EXTD=YEAR: 1998
EXTT0=
EXTT1=
EXTT2=
EXTT3=
EXTT4=
EXTT5=
EXTT6=
EXTT7=
EXTT8=
EXTT9=
PLAYORDER=
